<svg width="1440" height="817" viewBox="0 0 1440 817" fill="none" xmlns="http://www.w3.org/2000/svg">
<g filter="url(#filter0_dd_194_6226)">
<g clip-path="url(#clip0_194_6226)">
<g filter="url(#filter1_bdd_194_6226)">
<mask id="path-2-inside-1_194_6226" fill="white">
<path d="M0 24H1440V812H0V24Z"/>
</mask>
<path d="M0 24H1440V812H0V24Z" fill="white"/>
<path d="M0 24V14C-5.52285 14 -10 18.4772 -10 24L0 24ZM1440 24H1450C1450 18.4772 1445.52 14 1440 14V24ZM0 34H1440V14H0V34ZM1430 24V812H1450V24H1430ZM10 812V24H-10V812H10Z" fill="white" fill-opacity="0.8" mask="url(#path-2-inside-1_194_6226)"/>
</g>
<path opacity="0.2" fill-rule="evenodd" clip-rule="evenodd" d="M225.507 285.782L175.603 286.029L150.397 329.226L175.149 372.081L225.053 371.833L250.259 328.637L225.507 285.782ZM263.295 328.619L232.064 274.546L169.096 274.858L137.361 329.244L165.85 378.569L138.77 424.977L83.1346 425.253L53.8189 475.492L-1.01933 475.764L-28.5587 428.083L-90.8947 428.392L-122.312 482.233L-92.202 534.364L-118.115 578.771L-87.196 632.302L-24.86 631.993L3.66453 583.11L54.1713 582.859L80.8949 629.127L143.231 628.818L174.648 574.978L147.502 527.979L174.289 482.075L223.226 481.832L249.352 527.066L220.702 576.165L251.62 629.697L307.26 629.421L331.823 671.949L304.326 719.072L335.244 772.603L397.58 772.294L428.675 719.006L474.425 718.779L474.253 719.073L505.172 772.605L567.508 772.296L595.845 723.734L652.102 723.455L683.519 669.614L652.6 616.083L596.962 616.359L569.322 568.505L510.546 568.796L486.546 527.243L513.886 480.39L571.091 480.106L599.074 432.151L658.323 431.857L689.741 378.017L658.822 324.485L600.897 324.773L572.046 274.821L509.71 275.13L478.293 328.971L506.487 377.785L479.146 424.641L421.94 424.924L393.415 473.808L343.763 474.054L314.911 424.102L259.273 424.378L233.478 379.717L263.295 328.619ZM425.477 630.186L479.763 629.917L501.716 667.924L478.59 707.555L429.318 707.799L404.879 665.486L425.477 630.186ZM516.487 664.932L562.072 664.706L587.083 621.844L562.765 579.741L513.493 579.986L490.367 619.616L516.514 664.886L516.487 664.932ZM481.106 611.377L501.705 576.077L477.265 533.764L427.993 534.008L403.105 576.659L423.323 611.664L481.106 611.377ZM-21.9848 528.736L2.95137 571.91L51.2221 571.67L76.1099 529.019L51.6707 486.706L2.39818 486.951L-21.9848 528.736ZM-80.1907 536.102L-31.9199 535.863L-6.98381 579.036L-31.3668 620.822L-80.6393 621.066L-105.079 578.753L-80.1907 536.102ZM340.975 665.205L390.939 664.958L415.478 622.904L391.383 581.187L341.939 581.433L317.138 623.935L340.975 665.205ZM317.362 719.054L341.901 677L391.865 676.752L415.962 718.471L391.074 761.122L341.801 761.367L317.362 719.054ZM392.742 569.379L417.28 527.328L392.841 485.015L343.568 485.259L318.68 527.91L342.775 569.626L392.742 569.379ZM332.078 575.116L307.898 533.252L258.626 533.496L233.738 576.147L258.177 618.46L306.927 618.218L332.078 575.116ZM572.005 670.425L597.016 627.563L646.044 627.319L670.483 669.632L645.595 712.283L596.323 712.528L572.005 670.425ZM223.866 385.663L174.593 385.908L149.706 428.559L174.145 470.872L223.417 470.627L248.305 427.976L223.866 385.663ZM259.082 435.582L308.354 435.338L332.794 477.651L307.906 520.302L258.633 520.546L234.194 478.233L259.082 435.582ZM477.719 435.852L428.447 436.096L403.559 478.747L427.998 521.06L477.271 520.815L502.159 478.165L477.719 435.852ZM516.216 286.302L565.489 286.058L589.928 328.371L565.04 371.021L515.768 371.266L491.329 328.953L516.216 286.302ZM138.914 436.18L89.6413 436.424L64.7535 479.075L89.1927 521.388L138.465 521.144L163.353 478.493L138.914 436.18ZM-84.388 439.564L-35.1154 439.32L-10.6762 481.633L-35.564 524.284L-84.8366 524.528L-109.276 482.215L-84.388 439.564ZM515.76 384.215L565.033 383.971L589.472 426.284L564.584 468.935L515.312 469.179L490.873 426.866L515.76 384.215ZM561.45 676.16L512.177 676.404L487.29 719.055L511.729 761.368L561.001 761.124L585.889 718.473L561.45 676.16ZM652.265 335.722L602.993 335.966L578.105 378.617L602.544 420.93L651.817 420.686L676.705 378.035L652.265 335.722ZM87.9001 532.927L137.173 532.683L161.612 574.996L136.724 617.647L87.4515 617.891L63.0123 575.578L87.9001 532.927Z" fill="#D7D7D7"/>
<path opacity="0.2" fill-rule="evenodd" clip-rule="evenodd" d="M923.928 424.744L948.666 468.086L998.156 468.094L1022.96 424.667L998.224 381.325L948.734 381.317L923.928 424.744ZM942.213 479.382L1004.66 479.393L1034 428.021L1085.58 428.029L1113.16 476.351L1170.84 476.361L1195.46 519.485L1167.38 568.63L1195.74 618.314L1168.83 665.419L1112.46 665.409L1081.54 719.538L1112.44 773.677L1170.13 773.687L1198.84 823.995L1260.66 824.006L1291.58 769.877L1262.21 718.419L1289.75 670.207L1261.39 620.524L1288.3 573.421L1336.28 573.429L1365.42 624.476L1420.68 624.486L1448.26 672.808L1510.08 672.819L1541 618.691L1513.11 569.832L1541 521.009L1510.1 466.87L1448.28 466.859L1420.09 516.218L1373.82 516.21L1346.31 467.997L1369.17 427.968L1425.12 427.977L1456.03 373.849L1425.13 319.71L1363.32 319.699L1336.25 367.074L1287.14 367.066L1259.56 318.743L1197.74 318.732L1169.55 368.094L1117.31 368.085L1093.05 325.582L1119.41 279.433L1173.69 279.442L1204.61 225.314L1173.71 171.175L1120.27 171.166L1095.24 127.3L1123.31 78.1557L1092.41 24.0166L1030.59 24.0059L1005.09 68.6501L944.889 68.6396L913.97 122.768L944.87 176.907L999.932 176.917L1027.12 224.544L998.265 275.051L1025.84 323.371L999.193 370.028L942.232 370.018L911 424.695L942.213 479.382ZM1085.18 132.283L1035.32 132.274L1011.33 174.283L1035.75 217.077L1084.62 217.085L1109.11 174.206L1085.18 132.283ZM1036.53 120.107L1012.6 78.1835L1037.09 35.3045L1085.96 35.313L1110.38 78.1064L1086.39 120.115L1036.53 120.107ZM1359.76 421.765L1334.99 378.371L1287.33 378.363L1262.92 421.093L1287.43 464.036L1335.61 464.044L1359.76 421.765ZM1345.67 373.277L1369.82 330.998L1418.68 331.006L1443.11 373.8L1418.61 416.679L1370.44 416.67L1345.67 373.277ZM1253.74 513.393L1277.89 471.117L1253.12 427.72L1204.94 427.712L1180.45 470.591L1204.87 513.384L1253.74 513.393ZM1204.18 415.703L1252.52 415.712L1277.27 372.378L1253.11 330.04L1204.25 330.031L1179.75 372.91L1204.18 415.703ZM1430.41 618.931L1455.03 575.84L1503.65 575.848L1528.07 618.642L1503.58 661.52L1454.71 661.512L1430.41 618.931ZM1371.87 613.18L1420.49 613.188L1445.11 570.097L1420.8 527.516L1371.94 527.508L1347.45 570.387L1371.87 613.18ZM1009.92 373.93L1034.35 416.723L1083.21 416.731L1107.7 373.853L1083.28 331.059L1034.41 331.051L1009.92 373.93ZM1119.61 465.055L1095.18 422.262L1119.68 379.383L1168.54 379.391L1192.97 422.185L1168.47 465.064L1119.61 465.055ZM1180.31 568.679L1204.74 611.473L1253.6 611.481L1278.09 568.603L1253.67 525.809L1204.8 525.801L1180.31 568.679ZM1118.9 762.38L1094.47 719.587L1118.96 676.708L1167.83 676.716L1192.25 719.51L1167.76 762.389L1118.9 762.38ZM1011.19 275.1L1035.62 317.894L1084.48 317.902L1108.97 275.023L1084.55 232.23L1035.69 232.221L1011.19 275.1ZM951.323 165.611L926.898 122.817L951.391 79.9383L1000.25 79.9468L1024.68 122.74L1000.19 165.619L951.323 165.611ZM1264.88 519.33L1289.3 562.123L1338.17 562.132L1362.66 519.253L1338.24 476.459L1289.37 476.451L1264.88 519.33ZM1203.46 713.029L1179.04 670.235L1203.53 627.356L1252.4 627.365L1276.82 670.158L1252.33 713.037L1203.46 713.029ZM1430.29 521.037L1454.72 563.83L1503.58 563.839L1528.07 520.96L1503.65 478.167L1454.78 478.158L1430.29 521.037ZM1180.87 769.905L1205.29 812.699L1254.16 812.707L1278.65 769.828L1254.23 727.035L1205.36 727.026L1180.87 769.905ZM1118.32 268.135L1093.9 225.342L1118.39 182.463L1167.25 182.471L1191.68 225.265L1167.18 268.144L1118.32 268.135Z" fill="#D7D7D7"/>
</g>
</g>
<defs>
<filter id="filter0_dd_194_6226" x="-24" y="0" width="1488" height="817" filterUnits="userSpaceOnUse" color-interpolation-filters="sRGB">
<feFlood flood-opacity="0" result="BackgroundImageFix"/>
<feColorMatrix in="SourceAlpha" type="matrix" values="0 0 0 0 0 0 0 0 0 0 0 0 0 0 0 0 0 0 127 0" result="hardAlpha"/>
<feOffset dx="4" dy="4"/>
<feGaussianBlur stdDeviation="10"/>
<feComposite in2="hardAlpha" operator="out"/>
<feColorMatrix type="matrix" values="0 0 0 0 0.2125 0 0 0 0 0.186717 0 0 0 0 0.175667 0 0 0 0.05 0"/>
<feBlend mode="normal" in2="BackgroundImageFix" result="effect1_dropShadow_194_6226"/>
<feColorMatrix in="SourceAlpha" type="matrix" values="0 0 0 0 0 0 0 0 0 0 0 0 0 0 0 0 0 0 127 0" result="hardAlpha"/>
<feOffset dx="-4" dy="-4"/>
<feGaussianBlur stdDeviation="10"/>
<feComposite in2="hardAlpha" operator="out"/>
<feColorMatrix type="matrix" values="0 0 0 0 0.2125 0 0 0 0 0.186717 0 0 0 0 0.175667 0 0 0 0.05 0"/>
<feBlend mode="normal" in2="effect1_dropShadow_194_6226" result="effect2_dropShadow_194_6226"/>
<feBlend mode="normal" in="SourceGraphic" in2="effect2_dropShadow_194_6226" result="shape"/>
</filter>
<filter id="filter1_bdd_194_6226" x="-24" y="0" width="1488" height="836" filterUnits="userSpaceOnUse" color-interpolation-filters="sRGB">
<feFlood flood-opacity="0" result="BackgroundImageFix"/>
<feGaussianBlur in="BackgroundImageFix" stdDeviation="10"/>
<feComposite in2="SourceAlpha" operator="in" result="effect1_backgroundBlur_194_6226"/>
<feColorMatrix in="SourceAlpha" type="matrix" values="0 0 0 0 0 0 0 0 0 0 0 0 0 0 0 0 0 0 127 0" result="hardAlpha"/>
<feOffset dx="-4" dy="-4"/>
<feGaussianBlur stdDeviation="10"/>
<feComposite in2="hardAlpha" operator="out"/>
<feColorMatrix type="matrix" values="0 0 0 0 0.211765 0 0 0 0 0.188235 0 0 0 0 0.176471 0 0 0 0.05 0"/>
<feBlend mode="normal" in2="effect1_backgroundBlur_194_6226" result="effect2_dropShadow_194_6226"/>
<feColorMatrix in="SourceAlpha" type="matrix" values="0 0 0 0 0 0 0 0 0 0 0 0 0 0 0 0 0 0 127 0" result="hardAlpha"/>
<feOffset dx="4" dy="4"/>
<feGaussianBlur stdDeviation="10"/>
<feComposite in2="hardAlpha" operator="out"/>
<feColorMatrix type="matrix" values="0 0 0 0 0.211765 0 0 0 0 0.188235 0 0 0 0 0.176471 0 0 0 0.05 0"/>
<feBlend mode="normal" in2="effect2_dropShadow_194_6226" result="effect3_dropShadow_194_6226"/>
<feBlend mode="normal" in="SourceGraphic" in2="effect3_dropShadow_194_6226" result="shape"/>
</filter>
<clipPath id="clip0_194_6226">
<path d="M0 40C0 31.1635 7.16344 24 16 24H1424C1432.84 24 1440 31.1634 1440 40V793H0V40Z" fill="white"/>
</clipPath>
</defs>
</svg>
