<svg width="690" height="499" viewBox="0 0 690 499" fill="none" xmlns="http://www.w3.org/2000/svg">
<path opacity="0.2" fill-rule="evenodd" clip-rule="evenodd" d="M225.507 11.7819L175.603 12.0294L150.397 55.2255L175.149 98.0807L225.053 97.8332L250.259 54.6371L225.507 11.7819ZM263.295 54.619L232.064 0.54554L169.096 0.857834L137.361 55.2436L165.85 104.569L138.77 150.977L83.1346 151.253L53.8189 201.492L-1.01933 201.764L-28.5587 154.083L-90.8947 154.392L-122.312 208.233L-92.202 260.364L-118.115 304.771L-87.196 358.302L-24.86 357.993L3.66453 309.11L54.1713 308.859L80.8949 355.127L143.231 354.818L174.648 300.978L147.502 253.979L174.289 208.075L223.226 207.832L249.352 253.066L220.702 302.165L251.62 355.697L307.26 355.421L331.823 397.949L304.326 445.072L335.244 498.603L397.58 498.294L428.675 445.006L474.425 444.779L474.253 445.073L505.172 498.605L567.508 498.296L595.845 449.734L652.102 449.455L683.519 395.614L652.6 342.083L596.962 342.359L569.322 294.505L510.546 294.796L486.546 253.243L513.886 206.39L571.091 206.106L599.074 158.151L658.323 157.857L689.741 104.017L658.822 50.4853L600.897 50.7726L572.046 0.821249L509.71 1.13042L478.293 54.9709L506.487 103.785L479.146 150.641L421.94 150.924L393.415 199.808L343.763 200.054L314.911 150.102L259.273 150.378L233.478 105.717L263.295 54.619ZM425.477 356.186L479.763 355.917L501.716 393.924L478.59 433.555L429.318 433.799L404.879 391.486L425.477 356.186ZM516.487 390.932L562.072 390.706L587.083 347.844L562.765 305.741L513.493 305.986L490.367 345.616L516.514 390.886L516.487 390.932ZM481.106 337.377L501.705 302.077L477.265 259.764L427.993 260.008L403.105 302.659L423.323 337.664L481.106 337.377ZM-21.9848 254.736L2.95137 297.91L51.2221 297.67L76.1099 255.019L51.6707 212.706L2.39818 212.951L-21.9848 254.736ZM-80.1907 262.102L-31.9199 261.863L-6.98381 305.036L-31.3668 346.822L-80.6393 347.066L-105.079 304.753L-80.1907 262.102ZM340.975 391.205L390.939 390.958L415.478 348.904L391.383 307.187L341.939 307.433L317.138 349.935L340.975 391.205ZM317.362 445.054L341.901 403L391.865 402.752L415.962 444.471L391.074 487.122L341.801 487.367L317.362 445.054ZM392.742 295.379L417.28 253.328L392.841 211.015L343.568 211.259L318.68 253.91L342.775 295.626L392.742 295.379ZM332.078 301.116L307.898 259.252L258.626 259.496L233.738 302.147L258.177 344.46L306.927 344.218L332.078 301.116ZM572.005 396.425L597.016 353.563L646.044 353.319L670.483 395.632L645.595 438.283L596.323 438.528L572.005 396.425ZM223.866 111.663L174.593 111.908L149.706 154.559L174.145 196.872L223.417 196.627L248.305 153.976L223.866 111.663ZM259.082 161.582L308.354 161.338L332.794 203.651L307.906 246.302L258.633 246.546L234.194 204.233L259.082 161.582ZM477.719 161.852L428.447 162.096L403.559 204.747L427.998 247.06L477.271 246.815L502.159 204.165L477.719 161.852ZM516.216 12.302L565.489 12.0576L589.928 54.3706L565.04 97.0215L515.768 97.2659L491.329 54.9528L516.216 12.302ZM138.914 162.18L89.6413 162.424L64.7535 205.075L89.1927 247.388L138.465 247.144L163.353 204.493L138.914 162.18ZM-84.388 165.564L-35.1154 165.32L-10.6762 207.633L-35.564 250.284L-84.8366 250.528L-109.276 208.215L-84.388 165.564ZM515.76 110.215L565.033 109.971L589.472 152.284L564.584 194.935L515.312 195.179L490.873 152.866L515.76 110.215ZM561.45 402.16L512.177 402.404L487.29 445.055L511.729 487.368L561.001 487.124L585.889 444.473L561.45 402.16ZM652.265 61.7217L602.993 61.966L578.105 104.617L602.544 146.93L651.817 146.686L676.705 104.035L652.265 61.7217ZM87.9001 258.927L137.173 258.683L161.612 300.996L136.724 343.647L87.4515 343.891L63.0123 301.578L87.9001 258.927Z" fill="#D7D7D7"/>
</svg>
